<svg width="316" height="162" viewBox="0 0 316 162" fill="none" xmlns="http://www.w3.org/2000/svg">
<path d="M22.7898 43.9602L22.7885 43.9592C23.3528 42.995 23.9527 41.9694 26.1739 38.2589C27.2814 36.4068 28.7954 33.8831 30.7291 30.9489C32.6527 28.0303 34.9811 24.7256 37.7109 21.3265C40.4509 17.9139 43.5894 14.4127 47.0153 11.3012C50.4685 8.16512 54.2293 5.40622 58.1948 3.4986C62.1782 1.58273 66.3519 0.530935 70.8564 0.158255C75.3286 -0.212319 80.1271 0.0857005 85.3919 0.866205C90.6161 1.64072 96.3194 2.89626 102.839 4.57761C109.317 6.24729 116.622 8.34555 125.081 10.8132C133.679 13.3209 143.239 16.1422 152.327 18.8361C162.185 21.7584 170.62 24.2716 177.202 26.232C182.243 27.7343 186.223 28.921 189.547 29.9407C192.637 30.8888 194.944 31.6298 196.677 32.25C196.827 32.2004 196.977 32.1959 197.124 32.2419L197.142 32.2467L197.155 32.2516L197.16 32.2548C197.576 32.409 197.772 32.9443 197.754 33.6845C197.739 34.2656 197.605 35.0168 197.36 35.7981C197.304 35.9768 197.241 36.1587 197.173 36.3376C196.933 36.9772 196.648 37.5208 196.373 37.8909C195.999 38.3931 195.582 38.6332 195.187 38.5107L195.169 38.5059L195.156 38.501L195.148 38.4977C194.733 38.3426 194.537 37.806 194.557 37.0663C194.571 36.486 194.705 35.7348 194.95 34.954C195.005 34.7771 195.068 34.5972 195.134 34.419C195.244 34.127 195.363 33.8552 195.486 33.611C193.851 33.0431 191.754 32.3742 189.051 31.5446C185.99 30.6057 181.899 29.3858 176.72 27.8423C169.573 25.7134 160.395 22.979 151.851 20.4465C142.538 17.6859 132.903 14.8416 124.612 12.4235C116.185 9.9655 108.902 7.87374 102.416 6.20162C95.9715 4.54019 90.3285 3.29826 85.1463 2.52974C80.0042 1.76705 75.3301 1.47552 70.9934 1.83459C66.6874 2.1914 62.7085 3.1912 58.9251 5.0107C55.1228 6.83976 51.4945 9.50537 48.1483 12.5443C44.7749 15.6078 41.6994 19.037 39.0217 22.372C36.3339 25.7189 34.0344 28.9827 32.1321 31.8697C30.2399 34.7408 28.7255 37.2655 27.6166 39.1199C27.3373 39.5863 23.6247 45.4207 24.4444 44.6017L22.7898 43.9602ZM196.841 33.1196C196.821 33.1411 196.789 33.2546 196.675 33.4074C196.447 33.7137 196.207 34.1788 195.996 34.7379C195.941 34.8863 195.884 35.0507 195.829 35.2259C195.608 35.9308 195.489 36.5909 195.476 37.0867C195.468 37.3857 195.466 37.5859 195.471 37.6304C195.492 37.6047 195.525 37.4941 195.635 37.3452C195.863 37.0394 196.103 36.5757 196.313 36.0179C196.37 35.8673 196.427 35.7031 196.482 35.5254C196.703 34.8202 196.823 34.1595 196.836 33.6631C196.844 33.3606 196.846 33.1604 196.841 33.1196Z" fill="#007837"/>
<path d="M22.4269 80.4112C18.5291 76.9527 14.7452 73.6114 11.3307 70.6523C6.3986 66.3766 2.23546 62.8947 0.693996 59.5487C-0.848611 56.2037 0.227204 52.9931 3.45593 50.4593C6.57333 48.0146 11.6951 46.1979 25.7399 42.176C21.8651 48.829 19.6454 56.5577 19.6454 64.8038C19.6454 70.2902 20.6286 75.5479 22.4269 80.4112Z" fill="#007837"/>
<path d="M137.869 33.5843C171.857 43.4822 234.276 63.3043 268.819 74.3317C303.361 85.359 310.024 87.5917 313.356 90.7357C316.689 93.8788 316.689 97.934 314.373 100.468C312.059 103.003 307.427 104.016 293.024 109.207C278.621 114.397 254.444 123.765 231.743 132.028C209.04 140.291 187.811 147.451 171.222 153.245C154.632 159.04 142.682 163.468 131.106 161.544C119.53 159.618 108.329 151.337 100.076 145.166C91.823 138.992 86.5179 134.926 77.6241 127.64C71.1268 122.317 62.7146 115.276 55.1728 108.892C58.3224 109.583 61.5936 109.95 64.9513 109.95C89.9732 109.95 110.257 89.7375 110.257 64.8038C110.257 48.3455 101.421 33.9437 88.2179 26.0549L88.2161 26.0534C87.0546 24.2501 87.0122 22.2212 87.6719 20.2062C88.1759 18.6644 89.1279 17.1476 90.4709 15.9512C91.3918 15.1307 92.498 14.4288 93.7692 14.0013C106.991 9.55478 178.611 32.599 195.22 36.6318L194.825 38.2616C166.26 30.7505 134.986 19.6493 105.916 15.6242C100.965 14.9388 96.8191 14.7763 94.3036 15.6219C93.2582 15.9736 92.3493 16.5255 91.5922 17.2C90.4805 18.1907 89.6922 19.4477 89.2743 20.725C88.8675 21.9679 88.815 23.2171 89.1593 24.2349C89.3047 24.6646 89.5217 25.0521 89.813 25.3767L89.859 25.4295L90.1078 25.7266C101.015 23.9861 109.615 25.356 137.869 33.5843Z" fill="#007837"/>
<path fill-rule="evenodd" clip-rule="evenodd" d="M88.6026 78.3153C91.8042 73.6875 93.6816 68.0786 93.6816 62.0326C93.6816 45.3213 79.3426 32.1008 62.7284 33.3969L84.7182 71.6105H70.4156L50.4491 37.1501C41.8293 42.1159 36.0298 51.401 36.0298 62.0326C36.0298 77.8949 48.9379 90.7578 64.8555 90.7578C70.1095 90.7578 75.0356 89.3556 79.2766 86.9067L81.2577 90.3266H95.5615L88.6026 78.3153Z" fill="#003A6D"/>
<path fill-rule="evenodd" clip-rule="evenodd" d="M123.309 65.2803H127.697C129.098 65.2803 130.238 65.4207 131.115 65.6972C131.988 65.9782 132.724 66.5966 133.322 67.5525C133.916 68.5082 134.218 69.6606 134.218 71.0054C134.218 72.2376 133.974 73.3014 133.491 74.1865C133.004 75.0769 132.352 75.7187 131.536 76.1074C130.716 76.501 129.457 76.698 127.764 76.698H126.243V84.0161H123.309V65.2803ZM126.243 67.6837V74.2146H127.697C128.996 74.2146 129.896 73.9616 130.392 73.4465C130.889 72.936 131.137 72.1017 131.137 70.9494C131.137 70.0872 130.973 69.3893 130.645 68.855C130.317 68.321 129.954 67.9927 129.559 67.8665C129.169 67.7447 128.544 67.6837 127.697 67.6837H126.243ZM136.451 65.2803H141.788C143.716 65.2803 145.144 65.744 146.061 66.6674C146.978 67.5901 147.435 68.9161 147.435 70.6445C147.435 72.9543 146.531 74.5851 144.722 75.5456L148.087 84.0161H144.904L142.138 76.192H139.386V84.0161H136.451V65.2803ZM139.386 67.6837V73.7886H141.633C142.634 73.7886 143.375 73.4979 143.845 72.9125C144.319 72.3267 144.554 71.5632 144.554 70.6211C144.554 68.6631 143.587 67.6837 141.659 67.6837H139.386ZM150.489 65.2803H153.423V73.0479H158.645V65.2803H161.579V84.0161H158.645V75.6717H153.423V84.0161H150.489V65.2803ZM164.319 75.8357H169.93V78.1271H164.319V75.8357ZM174.487 71.2914L171.849 70.7011C172.164 68.8177 172.812 67.3839 173.791 66.4046C174.774 65.4254 176.029 64.9382 177.55 64.9382C179.212 64.9382 180.516 65.4534 181.459 66.4892C182.403 67.5198 182.878 68.8458 182.878 70.4526C182.878 72.3222 182.195 74.0975 180.839 75.7798C179.478 77.4665 177.523 79.303 174.966 81.2987H182.979L182.851 84.0161H171.849V81.3267C175.289 78.1974 177.479 75.9157 178.427 74.4915C179.376 73.0622 179.851 71.7786 179.851 70.6353C179.851 69.7171 179.629 68.9674 179.181 68.3816C178.737 67.7962 178.13 67.5057 177.368 67.5057C175.75 67.5057 174.788 68.7659 174.487 71.2914ZM197.133 74.4212C197.133 77.9159 196.641 80.4461 195.657 82.0107C194.676 83.5759 193.241 84.3582 191.353 84.3582C187.501 84.3582 185.577 81.1959 185.577 74.8752C185.577 71.3708 186.069 68.8361 187.058 67.276C188.042 65.716 189.473 64.9382 191.353 64.9382C195.205 64.9382 197.133 68.1006 197.133 74.4212ZM194.105 74.6412C194.105 71.8956 193.874 69.9747 193.414 68.8783C192.949 67.7775 192.261 67.2292 191.353 67.2292C190.452 67.2292 189.77 67.7728 189.301 68.855C188.834 69.9421 188.6 71.8677 188.6 74.6412C188.6 77.6258 188.856 79.6073 189.366 80.5865C189.876 81.5659 190.541 82.053 191.353 82.053C192.279 82.053 192.971 81.4957 193.427 80.3851C193.88 79.275 194.105 77.3586 194.105 74.6412ZM199.832 80.4741H202.793V84.0161H199.832V80.4741ZM210.12 65.0741H212.261V81.7109H215.142V84.0161H206.312V81.7109H209.393V68.8783C208.595 69.8903 207.544 70.7759 206.237 71.5256V68.6441C207.758 67.7632 209.051 66.5731 210.12 65.0741Z" fill="white"/>
<path fill-rule="evenodd" clip-rule="evenodd" d="M129.961 102.968V104.465C129.612 104.601 129.243 104.673 128.857 104.673C127.311 104.673 126.53 103.826 126.519 102.131C125.256 102.131 124.26 101.638 123.528 100.652C122.796 99.6664 122.43 98.1137 122.43 95.9906C122.43 93.9716 122.779 92.4422 123.477 91.4028C124.175 90.3606 125.191 89.8409 126.519 89.8409C127.844 89.8409 128.854 90.3606 129.547 91.4028C130.239 92.4422 130.585 93.9716 130.585 95.9906C130.585 99.1737 129.72 101.127 127.992 101.846C127.992 102.28 128.062 102.603 128.204 102.811C128.346 103.019 128.644 103.123 129.106 103.123C129.376 103.123 129.663 103.073 129.961 102.968ZM128.599 95.9906C128.599 94.9691 128.522 94.111 128.366 93.416C128.21 92.7181 127.983 92.2196 127.68 91.9106C127.379 91.602 126.984 91.4506 126.505 91.4506C125.733 91.4506 125.191 91.8481 124.879 92.6411C124.564 93.4366 124.407 94.5532 124.407 95.9906C124.407 97.4277 124.564 98.5443 124.879 99.3399C125.191 100.136 125.733 100.53 126.505 100.53C127.285 100.53 127.83 100.13 128.137 99.3279C128.446 98.5231 128.599 97.4125 128.599 95.9906ZM132.256 93.146H133.993V98.7311C133.993 99.5093 134.055 100.029 134.177 100.293C134.3 100.558 134.566 100.688 134.983 100.688C135.497 100.688 135.857 100.453 136.064 99.984C136.269 99.5148 136.371 98.6448 136.371 97.374V93.146H138.099V101.932H136.512V100.611C136.064 101.635 135.352 102.149 134.376 102.149C133.877 102.149 133.468 102.039 133.15 101.819C132.829 101.6 132.602 101.285 132.464 100.878C132.324 100.474 132.256 99.7673 132.256 98.7669V93.146ZM140.154 93.146H141.885V101.932H140.154V93.146ZM139.68 91.4239L142.347 88.98L143.247 90.1619L140.312 92.0947L139.68 91.4239ZM143.919 93.146H145.526V94.4853C145.934 93.4546 146.626 92.9381 147.594 92.9381C148.658 92.9381 149.299 93.4811 149.515 94.5712C149.909 93.4811 150.619 92.9381 151.643 92.9381C152.154 92.9381 152.58 93.0537 152.92 93.2857C153.261 93.517 153.496 93.826 153.63 94.2061C153.763 94.589 153.831 95.3135 153.831 96.3735V101.932H152.091V96.5219C152.091 95.6904 152.023 95.1295 151.89 94.8324C151.754 94.5385 151.479 94.3903 151.07 94.3903C150.193 94.3903 149.757 95.1886 149.757 96.7831V101.932H148.02V96.5816C148.02 95.8212 147.992 95.3314 147.932 95.1087C147.872 94.8828 147.764 94.7079 147.608 94.5798C147.449 94.4521 147.245 94.3903 146.995 94.3903C146.513 94.3903 146.17 94.5798 145.965 94.9601C145.761 95.3402 145.658 95.9608 145.658 96.8249V101.932H143.919V93.146ZM157.585 91.9642H155.775V90.0401H157.585V91.9642ZM155.814 93.146H157.545V101.932H155.814V93.146ZM165.408 96.1032L163.737 96.2964C163.655 95.5302 163.513 95.0164 163.314 94.7584C163.116 94.5027 162.832 94.3723 162.466 94.3723C161.949 94.3723 161.578 94.6216 161.345 95.1175C161.11 95.6133 160.993 96.4833 160.993 97.7303C160.993 99.6782 161.484 100.652 162.466 100.652C163.221 100.652 163.643 100.017 163.737 98.7491L165.408 98.9032C165.182 101.068 164.16 102.149 162.341 102.149C161.266 102.149 160.468 101.745 159.952 100.931C159.433 100.121 159.174 98.9983 159.174 97.5641C159.174 96.0559 159.455 94.9095 160.014 94.1198C160.573 93.333 161.388 92.9381 162.457 92.9381C164.183 92.9381 165.165 93.9922 165.408 96.1032ZM172.741 97.4516C172.741 100.584 171.631 102.149 169.415 102.149C168.397 102.149 167.593 101.772 167.009 101.015C166.424 100.257 166.132 99.0994 166.132 97.5374C166.132 94.4701 167.242 92.9381 169.458 92.9381C170.465 92.9381 171.266 93.3122 171.856 94.0605C172.446 94.8085 172.741 95.937 172.741 97.4516ZM170.905 97.5374C170.905 96.3024 170.772 95.4558 170.508 94.9958C170.247 94.5325 169.889 94.3039 169.441 94.3039C168.464 94.3039 167.976 95.382 167.976 97.5374C167.976 98.642 168.09 99.4555 168.317 99.984C168.544 100.51 168.919 100.774 169.441 100.774C169.957 100.774 170.329 100.507 170.559 99.9693C170.789 99.435 170.905 98.6242 170.905 97.5374ZM181.926 90.0576H183.648V101.932H182.06V100.602C181.656 101.594 180.962 102.09 179.974 102.09C179.026 102.09 178.314 101.674 177.84 100.845C177.366 100.014 177.131 98.9272 177.131 97.5819C177.131 96.139 177.392 95.0137 177.917 94.2061C178.439 93.4013 179.137 92.9972 180.008 92.9972C180.921 92.9972 181.56 93.3866 181.926 94.1643V90.0576ZM181.926 96.7656C181.926 95.8598 181.764 95.2271 181.438 94.865C181.109 94.5027 180.771 94.3218 180.422 94.3218C179.457 94.3218 178.975 95.352 178.975 97.4157C178.975 99.6219 179.463 100.724 180.439 100.724C180.817 100.724 181.157 100.54 181.466 100.174C181.773 99.8091 181.926 99.1737 181.926 98.2711V96.7656ZM191.778 97.8079H187.031C187.031 98.9983 187.184 99.7913 187.491 100.189C187.8 100.584 188.186 100.783 188.651 100.783C189.429 100.783 189.917 100.237 190.124 99.1412L191.701 99.3579C191.287 101.219 190.251 102.149 188.594 102.149C187.579 102.149 186.77 101.769 186.165 101.009C185.561 100.251 185.261 99.1379 185.261 97.6683C185.261 96.1628 185.564 94.9959 186.174 94.1731C186.784 93.3475 187.598 92.9381 188.617 92.9381C189.332 92.9381 189.934 93.1428 190.422 93.5555C190.91 93.9656 191.253 94.5087 191.452 95.1768C191.653 95.8479 191.761 96.7239 191.778 97.8079ZM190.008 96.5816C190.008 95.0344 189.525 94.2594 188.561 94.2594C187.658 94.2594 187.162 95.0344 187.074 96.5816H190.008ZM196.457 90.0576H199.267C200.164 90.0576 200.892 90.1466 201.455 90.3221C202.014 90.5002 202.484 90.8923 202.868 91.4977C203.248 92.1038 203.441 92.8343 203.441 93.6864C203.441 94.4674 203.285 95.1413 202.975 95.7023C202.664 96.2666 202.246 96.6733 201.724 96.92C201.199 97.1693 200.394 97.2941 199.309 97.2941H198.336V101.932H196.457V90.0576ZM198.336 91.581V95.7203H199.267C200.098 95.7203 200.674 95.56 200.992 95.2331C201.31 94.9095 201.469 94.381 201.469 93.6506C201.469 93.1043 201.364 92.6616 201.154 92.3233C200.944 91.9849 200.711 91.777 200.459 91.6971C200.209 91.6196 199.809 91.581 199.267 91.581H198.336ZM210.824 97.8079H206.077C206.077 98.9983 206.23 99.7913 206.537 100.189C206.846 100.584 207.232 100.783 207.697 100.783C208.475 100.783 208.963 100.237 209.17 99.1412L210.747 99.3579C210.333 101.219 209.297 102.149 207.64 102.149C206.624 102.149 205.816 101.769 205.211 101.009C204.607 100.251 204.306 99.1379 204.306 97.6683C204.306 96.1628 204.61 94.9959 205.22 94.1731C205.83 93.3475 206.644 92.9381 207.663 92.9381C208.378 92.9381 208.98 93.1428 209.467 93.5555C209.956 93.9656 210.299 94.5087 210.498 95.1768C210.699 95.8479 210.807 96.7239 210.824 97.8079ZM209.053 96.5816C209.053 95.0344 208.571 94.2594 207.607 94.2594C206.704 94.2594 206.207 95.0344 206.119 96.5816H209.053ZM212.668 90.8564L214.232 90.7022V93.146H215.835V94.607H214.232V98.4878C214.232 99.1705 214.246 99.625 214.28 99.8476C214.314 100.073 214.414 100.254 214.581 100.397C214.746 100.54 215.023 100.611 215.412 100.611C215.617 100.611 215.849 100.59 216.11 100.548V101.994C215.645 102.098 215.211 102.149 214.814 102.149C214.164 102.149 213.668 102.018 213.324 101.754C212.98 101.489 212.762 101.13 212.668 100.679C212.575 100.228 212.527 99.5359 212.527 98.6094V94.607H211.437V93.146H212.577L212.668 90.8564ZM216.998 93.146H218.528V95.1115C218.993 93.6804 219.694 92.9619 220.625 92.9619C220.713 92.9619 220.818 92.97 220.94 92.9886V94.8768C220.795 94.859 220.679 94.8502 220.591 94.8502C219.354 94.8502 218.738 95.7203 218.738 97.4603V101.932H216.998V93.146ZM227.832 97.4516C227.832 100.584 226.723 102.149 224.507 102.149C223.488 102.149 222.685 101.772 222.101 101.015C221.516 100.257 221.223 99.0994 221.223 97.5374C221.223 94.4701 222.333 92.9381 224.549 92.9381C225.557 92.9381 226.357 93.3122 226.947 94.0605C227.537 94.8085 227.832 95.937 227.832 97.4516ZM225.997 97.5374C225.997 96.3024 225.863 95.4558 225.599 94.9958C225.338 94.5325 224.981 94.3039 224.532 94.3039C223.556 94.3039 223.068 95.382 223.068 97.5374C223.068 98.642 223.182 99.4555 223.409 99.984C223.635 100.51 224.01 100.774 224.532 100.774C225.049 100.774 225.42 100.507 225.65 99.9693C225.88 99.435 225.997 98.6242 225.997 97.5374ZM223.21 91.4239L225.878 88.98L226.777 90.1619L223.843 92.0947L223.21 91.4239ZM229.469 90.0576H231.209V101.932H229.469V90.0576ZM239.347 97.8079H234.6C234.6 98.9983 234.753 99.7913 235.06 100.189C235.369 100.584 235.755 100.783 236.22 100.783C236.998 100.783 237.486 100.237 237.693 99.1412L239.271 99.3579C238.857 101.219 237.821 102.149 236.164 102.149C235.148 102.149 234.339 101.769 233.735 101.009C233.13 100.251 232.829 99.1379 232.829 97.6683C232.829 96.1628 233.133 94.9959 233.744 94.1731C234.353 93.3475 235.168 92.9381 236.186 92.9381C236.901 92.9381 237.503 93.1428 237.991 93.5555C238.479 93.9656 238.822 94.5087 239.021 95.1768C239.223 95.8479 239.33 96.7239 239.347 97.8079ZM237.577 96.5816C237.577 95.0344 237.094 94.2594 236.13 94.2594C235.227 94.2594 234.73 95.0344 234.643 96.5816H237.577ZM246.978 97.4516C246.978 100.584 245.869 102.149 243.652 102.149C242.633 102.149 241.831 101.772 241.246 101.015C240.661 100.257 240.369 99.0994 240.369 97.5374C240.369 94.4701 241.479 92.9381 243.695 92.9381C244.702 92.9381 245.502 93.3122 246.092 94.0605C246.682 94.8085 246.978 95.937 246.978 97.4516ZM245.142 97.5374C245.142 96.3024 245.008 95.4558 244.745 94.9958C244.484 94.5325 244.126 94.3039 243.678 94.3039C242.701 94.3039 242.213 95.382 242.213 97.5374C242.213 98.642 242.327 99.4555 242.554 99.984C242.781 100.51 243.155 100.774 243.678 100.774C244.194 100.774 244.565 100.507 244.795 99.9693C245.025 99.435 245.142 98.6242 245.142 97.5374ZM128.848 116.998H124.102C124.102 118.189 124.255 118.982 124.561 119.38C124.87 119.774 125.256 119.973 125.721 119.973C126.499 119.973 126.987 119.427 127.194 118.331L128.772 118.548C128.358 120.41 127.322 121.339 125.665 121.339C124.649 121.339 123.84 120.959 123.236 120.199C122.631 119.442 122.33 118.328 122.33 116.859C122.33 115.353 122.634 114.186 123.245 113.363C123.854 112.538 124.669 112.128 125.687 112.128C126.402 112.128 127.004 112.333 127.492 112.746C127.98 113.156 128.324 113.699 128.522 114.367C128.724 115.038 128.831 115.914 128.848 116.998ZM127.078 115.772C127.078 114.225 126.595 113.45 125.631 113.45C124.728 113.45 124.231 114.225 124.144 115.772H127.078ZM133.528 109.248H136.961C137.824 109.248 138.482 109.32 138.931 109.465C139.379 109.611 139.759 109.934 140.068 110.436C140.381 110.937 140.536 111.546 140.536 112.268C140.536 113.583 139.972 114.451 138.848 114.869C140.205 115.315 140.886 116.309 140.886 117.85C140.886 118.726 140.616 119.492 140.082 120.143C139.546 120.796 138.525 121.122 137.009 121.122H133.528V109.248ZM135.364 114.171H136.553C137.39 114.171 137.94 114.011 138.207 113.69C138.473 113.367 138.607 112.951 138.607 112.44C138.607 111.843 138.454 111.416 138.15 111.157C137.844 110.899 137.373 110.771 136.737 110.771H135.364V114.171ZM135.364 119.549H136.876C138.264 119.549 138.956 118.907 138.956 117.625C138.956 117.126 138.809 116.681 138.516 116.285C138.221 115.89 137.622 115.694 136.72 115.694H135.364V119.549ZM144.509 111.155H142.699V109.231H144.509V111.155ZM142.739 112.336H144.47V121.122H142.739V112.336ZM152.708 116.642C152.708 119.774 151.598 121.339 149.382 121.339C148.363 121.339 147.56 120.962 146.976 120.205C146.391 119.448 146.098 118.29 146.098 116.728C146.098 113.66 147.208 112.128 149.424 112.128C150.432 112.128 151.232 112.503 151.822 113.251C152.412 113.999 152.708 115.127 152.708 116.642ZM150.872 116.728C150.872 115.493 150.738 114.646 150.474 114.186C150.213 113.723 149.856 113.494 149.407 113.494C148.431 113.494 147.943 114.572 147.943 116.728C147.943 117.832 148.057 118.646 148.284 119.174C148.51 119.7 148.885 119.965 149.407 119.965C149.924 119.965 150.295 119.697 150.525 119.16C150.755 118.625 150.872 117.814 150.872 116.728ZM160.164 115.294L158.493 115.487C158.411 114.721 158.269 114.207 158.07 113.949C157.872 113.693 157.588 113.563 157.222 113.563C156.705 113.563 156.334 113.812 156.101 114.308C155.866 114.804 155.749 115.674 155.749 116.921C155.749 118.869 156.24 119.843 157.222 119.843C157.977 119.843 158.399 119.207 158.493 117.939L160.164 118.094C159.938 120.258 158.916 121.339 157.097 121.339C156.022 121.339 155.224 120.936 154.708 120.122C154.189 119.311 153.93 118.189 153.93 116.754C153.93 115.246 154.211 114.1 154.77 113.31C155.329 112.523 156.144 112.128 157.213 112.128C158.939 112.128 159.921 113.182 160.164 115.294ZM167.497 116.642C167.497 119.774 166.387 121.339 164.171 121.339C163.153 121.339 162.35 120.962 161.765 120.205C161.18 119.448 160.888 118.29 160.888 116.728C160.888 113.66 161.998 112.128 164.214 112.128C165.221 112.128 166.022 112.503 166.612 113.251C167.202 113.999 167.497 115.127 167.497 116.642ZM165.661 116.728C165.661 115.493 165.528 114.646 165.264 114.186C165.003 113.723 164.645 113.494 164.197 113.494C163.22 113.494 162.732 114.572 162.732 116.728C162.732 117.832 162.846 118.646 163.073 119.174C163.3 119.7 163.675 119.965 164.197 119.965C164.713 119.965 165.085 119.697 165.315 119.16C165.545 118.625 165.661 117.814 165.661 116.728ZM169.125 112.336H170.732V113.676C171.14 112.645 171.833 112.128 172.8 112.128C173.865 112.128 174.506 112.672 174.721 113.762C175.116 112.672 175.825 112.128 176.849 112.128C177.36 112.128 177.786 112.244 178.127 112.476C178.467 112.707 178.702 113.016 178.836 113.396C178.969 113.779 179.037 114.504 179.037 115.564V121.122H177.298V115.712C177.298 114.881 177.23 114.32 177.096 114.023C176.961 113.729 176.685 113.581 176.276 113.581C175.4 113.581 174.963 114.379 174.963 115.973V121.122H173.226V115.772C173.226 115.012 173.198 114.522 173.138 114.299C173.078 114.073 172.971 113.898 172.815 113.77C172.656 113.643 172.451 113.581 172.202 113.581C171.719 113.581 171.376 113.77 171.171 114.15C170.967 114.531 170.865 115.151 170.865 116.015V121.122H169.125V112.336ZM181.012 109.248H182.735V113.346C183.228 112.568 183.878 112.179 184.687 112.179C185.564 112.179 186.256 112.571 186.761 113.349C187.269 114.13 187.522 115.181 187.522 116.502C187.522 119.703 186.486 121.307 184.415 121.307C183.439 121.307 182.76 120.846 182.377 119.932C182.25 120.261 182.122 120.659 181.994 121.122H181.012V109.248ZM182.735 117.408C182.735 119.094 183.228 119.941 184.213 119.941C184.724 119.941 185.096 119.685 185.328 119.174C185.561 118.664 185.677 117.809 185.677 116.606C185.677 115.454 185.561 114.649 185.328 114.192C185.096 113.738 184.735 113.512 184.247 113.512C183.822 113.512 183.461 113.714 183.172 114.121C182.879 114.525 182.735 115.074 182.735 115.763V117.408ZM189.085 112.336H190.822V117.922C190.822 118.7 190.884 119.219 191.006 119.483C191.129 119.748 191.395 119.878 191.812 119.878C192.326 119.878 192.686 119.644 192.893 119.174C193.098 118.705 193.2 117.835 193.2 116.564V112.336H194.928V121.122H193.342V119.801C192.893 120.825 192.181 121.339 191.205 121.339C190.706 121.339 190.297 121.229 189.979 121.01C189.659 120.79 189.431 120.475 189.292 120.068C189.153 119.664 189.085 118.958 189.085 117.957V112.336ZM202.039 114.388L200.683 114.771C200.433 113.889 199.959 113.45 199.262 113.45C198.941 113.45 198.682 113.554 198.484 113.762C198.288 113.972 198.188 114.231 198.188 114.537C198.188 114.884 198.288 115.139 198.49 115.303C198.688 115.466 199.145 115.668 199.86 115.912C200.743 116.22 201.375 116.564 201.764 116.95C202.153 117.337 202.346 117.874 202.346 118.566C202.346 119.341 202.068 120 201.514 120.534C200.961 121.072 200.212 121.339 199.27 121.339C197.49 121.339 196.483 120.487 196.245 118.783L197.715 118.494C197.905 119.504 198.438 120.009 199.321 120.009C199.769 120.009 200.101 119.893 200.323 119.662C200.541 119.43 200.649 119.154 200.649 118.833C200.649 118.613 200.575 118.397 200.424 118.177C200.277 117.96 199.857 117.735 199.171 117.503C198.509 117.283 198.012 117.078 197.678 116.885C197.343 116.695 197.067 116.419 196.849 116.054C196.634 115.692 196.526 115.282 196.526 114.824C196.526 114.077 196.787 113.441 197.309 112.915C197.828 112.39 198.504 112.128 199.329 112.128C200.731 112.128 201.634 112.883 202.039 114.388ZM204.119 110.047L205.683 109.892V112.336H207.286V113.797H205.683V117.678C205.683 118.361 205.698 118.815 205.731 119.038C205.765 119.263 205.865 119.445 206.032 119.587C206.196 119.73 206.475 119.801 206.863 119.801C207.068 119.801 207.3 119.78 207.561 119.739V121.185C207.096 121.289 206.662 121.339 206.264 121.339C205.615 121.339 205.118 121.209 204.774 120.944C204.432 120.68 204.213 120.321 204.119 119.869C204.026 119.418 203.977 118.726 203.977 117.8V113.797H202.888V112.336H204.029L204.119 110.047ZM208.449 112.336H210.18V121.122H208.449V112.336ZM207.976 110.614L210.643 108.17L211.543 109.352L208.608 111.285L207.976 110.614ZM211.111 112.336H212.814L214.386 118.643L215.924 112.336H217.428L215.05 121.122H213.512L211.111 112.336ZM224.42 116.998H219.673C219.673 118.189 219.825 118.982 220.132 119.38C220.441 119.774 220.828 119.973 221.293 119.973C222.07 119.973 222.558 119.427 222.765 118.331L224.343 118.548C223.929 120.41 222.893 121.339 221.236 121.339C220.22 121.339 219.411 120.959 218.807 120.199C218.203 119.442 217.902 118.328 217.902 116.859C217.902 115.353 218.206 114.186 218.816 113.363C219.426 112.538 220.24 112.128 221.259 112.128C221.974 112.128 222.576 112.333 223.063 112.746C223.551 113.156 223.895 113.699 224.094 114.367C224.295 115.038 224.403 115.914 224.42 116.998ZM222.649 115.772C222.649 114.225 222.167 113.45 221.202 113.45C220.3 113.45 219.803 114.225 219.715 115.772H222.649ZM227.626 111.155H225.816V109.231H227.626V111.155ZM225.855 112.336H227.586V121.122H225.855V112.336ZM234.686 114.388L233.33 114.771C233.081 113.889 232.606 113.45 231.909 113.45C231.588 113.45 231.329 113.554 231.131 113.762C230.935 113.972 230.836 114.231 230.836 114.537C230.836 114.884 230.935 115.139 231.137 115.303C231.335 115.466 231.792 115.668 232.507 115.912C233.39 116.22 234.022 116.564 234.411 116.95C234.8 117.337 234.993 117.874 234.993 118.566C234.993 119.341 234.715 120 234.161 120.534C233.608 121.072 232.859 121.339 231.917 121.339C230.138 121.339 229.13 120.487 228.892 118.783L230.362 118.494C230.552 119.504 231.085 120.009 231.968 120.009C232.416 120.009 232.748 119.893 232.97 119.662C233.188 119.43 233.296 119.154 233.296 118.833C233.296 118.613 233.222 118.397 233.072 118.177C232.924 117.96 232.504 117.735 231.818 117.503C231.157 117.283 230.66 117.078 230.325 116.885C229.99 116.695 229.714 116.419 229.496 116.054C229.281 115.692 229.173 115.282 229.173 114.824C229.173 114.077 229.434 113.441 229.956 112.915C230.476 112.39 231.151 112.128 231.977 112.128C233.378 112.128 234.281 112.883 234.686 114.388ZM122.813 128.438H124.691V140.313H122.813V128.438ZM134.019 141.349V142.846C133.67 142.982 133.301 143.054 132.915 143.054C131.369 143.054 130.588 142.207 130.577 140.512C129.314 140.512 128.318 140.019 127.586 139.033C126.854 138.047 126.488 136.494 126.488 134.371C126.488 132.352 126.837 130.823 127.535 129.783C128.233 128.741 129.249 128.222 130.577 128.222C131.902 128.222 132.913 128.741 133.605 129.783C134.297 130.823 134.643 132.352 134.643 134.371C134.643 137.555 133.778 139.508 132.05 140.226C132.05 140.66 132.12 140.984 132.262 141.192C132.404 141.4 132.702 141.503 133.164 141.503C133.434 141.503 133.721 141.453 134.019 141.349ZM132.657 134.371C132.657 133.35 132.58 132.492 132.424 131.797C132.268 131.099 132.041 130.6 131.737 130.291C131.437 129.983 131.042 129.831 130.563 129.831C129.791 129.831 129.249 130.229 128.937 131.022C128.622 131.817 128.466 132.934 128.466 134.371C128.466 135.808 128.622 136.925 128.937 137.721C129.249 138.516 129.791 138.911 130.563 138.911C131.343 138.911 131.888 138.51 132.195 137.709C132.504 136.904 132.657 135.793 132.657 134.371ZM136.014 135.128H139.606V136.58H136.014V135.128ZM141.286 128.438H143.122V135.805C143.122 136.631 143.164 137.237 143.247 137.628C143.329 138.02 143.519 138.332 143.817 138.561C144.112 138.789 144.513 138.902 145.018 138.902C145.494 138.902 145.866 138.81 146.133 138.621C146.396 138.433 146.586 138.166 146.697 137.822C146.808 137.474 146.862 136.791 146.862 135.773V128.438H148.55V135.675C148.55 136.836 148.471 137.729 148.315 138.356C148.156 138.983 147.79 139.502 147.217 139.912C146.643 140.325 145.874 140.529 144.91 140.529C144.161 140.529 143.511 140.402 142.96 140.143C142.407 139.885 141.992 139.467 141.709 138.89C141.425 138.314 141.286 137.284 141.286 135.805V128.438ZM150.648 128.438H156.95V130.012H152.526V133.563H156.067V135.137H152.526V140.313H150.648V128.438ZM157.898 128.438H161.314C162.548 128.438 163.462 128.733 164.049 129.318C164.637 129.903 164.929 130.743 164.929 131.838C164.929 133.302 164.35 134.336 163.192 134.944L165.346 140.313H163.309L161.538 135.354H159.776V140.313H157.898V128.438ZM159.776 129.962V133.831H161.214C161.856 133.831 162.33 133.646 162.63 133.276C162.934 132.905 163.084 132.42 163.084 131.823C163.084 130.582 162.466 129.962 161.231 129.962H159.776ZM168.09 128.438H169.969V135.823C169.969 137.047 169.9 137.958 169.768 138.555C169.637 139.152 169.35 139.633 168.914 139.992C168.473 140.351 167.846 140.529 167.026 140.529C166.603 140.529 166.101 140.458 165.519 140.313V138.686C165.908 138.795 166.274 138.852 166.618 138.852C167.023 138.852 167.33 138.772 167.537 138.617C167.744 138.46 167.889 138.219 167.968 137.899C168.048 137.578 168.09 136.886 168.09 135.823V128.438Z" fill="white"/>
</svg>
